<svg xmlns="http://www.w3.org/2000/svg" viewBox="0 0 1200 460" width="1200" height="460" role="img" aria-labelledby="title desc">
  <title id="title">Code Archaeology — Multi-runtime Plugin</title>
  <desc id="desc">Dark-themed archaeological excavation banner showing code strata layers, dual runtime badges for OpenCode and Hermes, and a 10-phase expedition indicator.</desc>

  <defs>
    <!-- Background gradient -->
    <linearGradient id="bgGrad" x1="0" y1="0" x2="0" y2="1">
      <stop offset="0" stop-color="#0b1020"/>
      <stop offset="1" stop-color="#1e293b"/>
    </linearGradient>

    <!-- Strata gradients -->
    <linearGradient id="surfaceGrad" x1="0" y1="0" x2="1" y2="0">
      <stop offset="0" stop-color="#334155"/>
      <stop offset="1" stop-color="#475569"/>
    </linearGradient>
    <linearGradient id="legacyGrad" x1="0" y1="0" x2="1" y2="0">
      <stop offset="0" stop-color="#78350f"/>
      <stop offset="1" stop-color="#92400e"/>
    </linearGradient>
    <linearGradient id="bedrockGrad" x1="0" y1="0" x2="1" y2="0">
      <stop offset="0" stop-color="#1e1b4b"/>
      <stop offset="1" stop-color="#312e81"/>
    </linearGradient>

    <!-- Glow filter for accents -->
    <filter id="glow" x="-30%" y="-30%" width="160%" height="160%">
      <feGaussianBlur stdDeviation="3" result="blur"/>
      <feMerge>
        <feMergeNode in="blur"/>
        <feMergeNode in="SourceGraphic"/>
      </feMerge>
    </filter>

    <!-- Subtle grid pattern -->
    <pattern id="grid" width="40" height="40" patternUnits="userSpaceOnUse">
      <path d="M 40 0 L 0 0 0 40" fill="none" stroke="#1e293b" stroke-width="0.5" opacity="0.3"/>
    </pattern>
  </defs>

  <!-- Background -->
  <rect width="1200" height="460" fill="url(#bgGrad)"/>
  <rect width="1200" height="460" fill="url(#grid)"/>

  <!-- Geological strata layers (left side, showing code layers) -->
  <g transform="translate(60, 80)">
    <!-- Surface layer -->
    <path d="M0 0 L280 0 L260 55 L20 55 Z" fill="url(#surfaceGrad)" stroke="#64748b" stroke-width="1.5"/>
    <text x="140" y="35" text-anchor="middle" font-family="SFMono-Regular, Consolas, monospace" font-size="14" fill="#94a3b8">Surface // Active Code</text>

    <!-- Legacy layer -->
    <path d="M20 55 L260 55 L240 115 L40 115 Z" fill="url(#legacyGrad)" stroke="#f97316" stroke-width="1.5" opacity="0.85"/>
    <text x="140" y="92" text-anchor="middle" font-family="SFMono-Regular, Consolas, monospace" font-size="14" fill="#fdba74">Legacy // Deprecated Shims</text>

    <!-- Bedrock layer -->
    <path d="M40 115 L240 115 L220 180 L60 180 Z" fill="url(#bedrockGrad)" stroke="#6366f1" stroke-width="1.5" opacity="0.9"/>
    <text x="140" y="155" text-anchor="middle" font-family="SFMono-Regular, Consolas, monospace" font-size="14" fill="#a5b4fc">Bedrock // Core Types</text>

    <!-- Stratum divider lines -->
    <line x1="290" y1="27" x2="340" y2="27" stroke="#64748b" stroke-width="1" stroke-dasharray="4 3"/>
    <line x1="270" y1="85" x2="340" y2="85" stroke="#f97316" stroke-width="1" stroke-dasharray="4 3"/>
    <line x1="250" y1="147" x2="340" y2="147" stroke="#6366f1" stroke-width="1" stroke-dasharray="4 3"/>
  </g>

  <!-- Archaeologist / excavation tools (right side) -->
    <g transform="translate(980, 70)">
    <!-- Brush -->
    <rect x="15" y="0" width="12" height="70" rx="3" fill="#78350f" opacity="0.9"/>
    <rect x="10" y="65" width="22" height="35" rx="4" fill="#d97706" opacity="0.9"/>
    <line x1="21" y1="100" x2="21" y2="130" stroke="#d97706" stroke-width="3" stroke-linecap="round"/>

    <!-- Trowel -->
    <path d="M60 20 L75 20 L85 80 L50 80 Z" fill="#475569" stroke="#94a3b8" stroke-width="1.5"/>
    <line x1="67" y1="80" x2="67" y2="130" stroke="#64748b" stroke-width="4" stroke-linecap="round"/>

    <!-- Small artifacts / code fragments -->
    <text x="-30" y="160" font-family="SFMono-Regular, Consolas, monospace" font-size="11" fill="#fbbf24" opacity="0.7">{ }</text>
    <text x="10" y="175" font-family="SFMono-Regular, Consolas, monospace" font-size="10" fill="#f97316" opacity="0.6">// TODO</text>
    <text x="45" y="155" font-family="SFMono-Regular, Consolas, monospace" font-size="9" fill="#a5b4fc" opacity="0.5">fn main()</text>
  </g>

  <!-- Wordmark -->
  <g transform="translate(420, 105)">
    <text x="0" y="0" font-family="Inter, Segoe UI, Arial, sans-serif" font-size="56" font-weight="900" fill="#f8fafc" letter-spacing="-1">Code Archaeology</text>
    <text x="2" y="42" font-family="Inter, Segoe UI, Arial, sans-serif" font-size="20" font-weight="600" fill="#fbbf24">Excavate technical debt. Restore with confidence.</text>
  </g>

  <!-- Runtime badges -->
  <g transform="translate(420, 185)">
    <!-- OpenCode badge -->
    <rect x="0" y="0" width="130" height="32" rx="8" fill="#0f172a" stroke="#38bdf8" stroke-width="1.5"/>
    <circle cx="20" cy="16" r="5" fill="#38bdf8"/>
    <text x="34" y="21" font-family="SFMono-Regular, Consolas, monospace" font-size="13" fill="#e0f2fe" font-weight="600">OpenCode</text>

    <!-- Hermes badge -->
    <rect x="150" y="0" width="120" height="32" rx="8" fill="#0f172a" stroke="#a78bfa" stroke-width="1.5"/>
    <circle cx="170" cy="16" r="5" fill="#a78bfa"/>
    <text x="184" y="21" font-family="SFMono-Regular, Consolas, monospace" font-size="13" fill="#ede9fe" font-weight="600">Hermes</text>

    <!-- Multi-runtime label -->
    <text x="290" y="21" font-family="Inter, Segoe UI, Arial, sans-serif" font-size="14" fill="#94a3b8" font-weight="500">Multi-runtime plugin</text>
  </g>

  <!-- 10-phase indicator -->
  <g transform="translate(420, 255)">
    <text x="0" y="-10" font-family="Inter, Segoe UI, Arial, sans-serif" font-size="12" fill="#64748b" font-weight="600" letter-spacing="2">10-PHASE EXPEDITION</text>

    <!-- Phase boxes 1-10 -->
    <g font-family="SFMono-Regular, Consolas, monospace" font-size="11" font-weight="700">
      <!-- Phase 1 -->
      <rect x="0" y="0" width="36" height="28" rx="5" fill="#0f172a" stroke="#38bdf8" stroke-width="1.5"/>
      <text x="18" y="19" text-anchor="middle" fill="#e0f2fe">1</text>
      <!-- Arrow -->
      <text x="42" y="19" fill="#475569">→</text>

      <!-- Phase 2 -->
      <rect x="56" y="0" width="36" height="28" rx="5" fill="#0f172a" stroke="#38bdf8" stroke-width="1.5"/>
      <text x="74" y="19" text-anchor="middle" fill="#e0f2fe">2</text>
      <text x="98" y="19" fill="#475569">→</text>

      <!-- Phase 3 -->
      <rect x="112" y="0" width="36" height="28" rx="5" fill="#0f172a" stroke="#38bdf8" stroke-width="1.5"/>
      <text x="130" y="19" text-anchor="middle" fill="#e0f2fe">3</text>
      <text x="154" y="19" fill="#475569">→</text>

      <!-- Phase 4 -->
      <rect x="168" y="0" width="36" height="28" rx="5" fill="#0f172a" stroke="#38bdf8" stroke-width="1.5"/>
      <text x="186" y="19" text-anchor="middle" fill="#e0f2fe">4</text>
      <text x="210" y="19" fill="#475569">→</text>

      <!-- Phase 5 -->
      <rect x="224" y="0" width="36" height="28" rx="5" fill="#0f172a" stroke="#fbbf24" stroke-width="1.5"/>
      <text x="242" y="19" text-anchor="middle" fill="#fef3c7">5</text>
      <text x="266" y="19" fill="#475569">→</text>

      <!-- Phase 6 -->
      <rect x="280" y="0" width="36" height="28" rx="5" fill="#0f172a" stroke="#fbbf24" stroke-width="1.5"/>
      <text x="298" y="19" text-anchor="middle" fill="#fef3c7">6</text>
      <text x="322" y="19" fill="#475569">→</text>

      <!-- Phase 7 -->
      <rect x="336" y="0" width="36" height="28" rx="5" fill="#0f172a" stroke="#f97316" stroke-width="1.5"/>
      <text x="354" y="19" text-anchor="middle" fill="#ffedd5">7</text>
      <text x="378" y="19" fill="#475569">→</text>

      <!-- Phase 8 -->
      <rect x="392" y="0" width="36" height="28" rx="5" fill="#0f172a" stroke="#f97316" stroke-width="1.5"/>
      <text x="410" y="19" text-anchor="middle" fill="#ffedd5">8</text>
      <text x="434" y="19" fill="#475569">→</text>

      <!-- Phase 9 -->
      <rect x="448" y="0" width="36" height="28" rx="5" fill="#0f172a" stroke="#a78bfa" stroke-width="1.5"/>
      <text x="466" y="19" text-anchor="middle" fill="#ede9fe">9</text>
      <text x="490" y="19" fill="#475569">→</text>

      <!-- Phase 10 -->
      <rect x="504" y="0" width="42" height="28" rx="5" fill="#0f172a" stroke="#a78bfa" stroke-width="1.5"/>
      <text x="525" y="19" text-anchor="middle" fill="#ede9fe">10</text>
    </g>
  </g>

  <!-- Bottom info bar -->
  <g transform="translate(420, 340)">
    <rect x="0" y="0" width="560" height="42" rx="10" fill="#020617" opacity="0.72" stroke="#334155" stroke-width="1"/>
    <text x="20" y="26" font-family="SFMono-Regular, Consolas, monospace" font-size="13" fill="#94a3b8">survey · excavate · restore · verify · dead code · legacy · cycles · types · DRY · errors</text>
  </g>

  <!-- Decorative particles / dust motes -->
  <g opacity="0.4" fill="#fbbf24">
    <circle cx="1100" cy="60" r="2"/>
    <circle cx="1150" cy="120" r="1.5"/>
    <circle cx="1080" cy="200" r="2.5"/>
    <circle cx="1120" cy="280" r="1.8"/>
    <circle cx="1160" cy="350" r="2"/>
    <circle cx="1090" cy="400" r="1.5"/>
    <circle cx="1140" cy="430" r="2"/>
  </g>

  <!-- Subtle excavation grid markers -->
  <g opacity="0.15" stroke="#fbbf24" stroke-width="1" fill="none">
    <rect x="50" y="70" width="300" height="200" rx="4"/>
    <line x1="50" y1="130" x2="350" y2="130"/>
    <line x1="50" y1="190" x2="350" y2="190"/>
    <line x1="150" y1="70" x2="150" y2="270"/>
    <line x1="250" y1="70" x2="250" y2="270"/>
  </g>

  <!-- Corner accent lines -->
  <g opacity="0.3" stroke="#f97316" stroke-width="2" fill="none">
    <path d="M0 0 L60 0 L0 60 Z" fill="#f97316" opacity="0.05"/>
    <path d="M1140 0 L1200 0 L1200 60 Z" fill="#f97316" opacity="0.05"/>
    <path d="M0 400 L0 460 L60 460 Z" fill="#f97316" opacity="0.05"/>
    <path d="M1140 460 L1200 460 L1200 400 Z" fill="#f97316" opacity="0.05"/>
  </g>
</svg>
